<svg id="Layer_1" enable-background="new 0 0 511.977 511.977" height="512" viewBox="0 0 511.977 511.977" width="512" xmlns="http://www.w3.org/2000/svg"><g id="XMLID_1224_"><g id="XMLID_1442_"><path id="XMLID_1445_" d="m506.409 190.565-114.797-56.759 20.179-20.179c5.348-5.348 8.293-12.458 8.293-20.021s-2.945-14.672-8.292-20.021l-28.594-28.594c-11.04-11.04-29.001-11.039-40.041 0l-20.451 20.451-1.252-1.252c-3.905-3.904-10.237-3.904-14.142 0l-95.528 95.527c-1.875 1.875-2.929 4.419-2.929 7.071s1.054 5.196 2.929 7.071l1.253 1.253-198.474 198.474c-19.417 19.418-19.417 51.013 0 70.431l16.66 16.66c9.406 9.406 21.913 14.586 35.215 14.586s25.809-5.18 35.215-14.586c8.901-8.901 14.069-20.731 14.55-33.31.466-12.172 5.466-23.619 14.079-32.231l151.114-151.114 56.758 114.796c1.686 3.41 5.161 5.568 8.964 5.568 44.068 0 85.477-17.139 116.598-48.259s48.259-72.529 48.259-116.597c.002-3.804-2.157-7.279-5.566-8.965zm-149.111-131.429c3.242-3.241 8.516-3.241 11.756 0l28.594 28.594c1.57 1.57 2.435 3.658 2.435 5.878 0 2.221-.865 4.308-2.435 5.878l-20.451 20.451-40.35-40.35zm-42.917 26.269 56.104 56.104-81.385 81.385-56.104-56.104zm-198.241 295.588c-12.188 12.188-19.262 28.385-19.922 45.608-.288 7.527-3.38 14.606-8.707 19.933-5.629 5.629-13.113 8.729-21.073 8.729s-15.444-3.1-21.073-8.729l-16.66-16.66c-11.62-11.62-11.62-30.526 0-42.146l198.472-198.472 40.35 40.35zm237.127-36.736-13.145-26.586c15.965-1.431 31.379-5.577 45.965-12.399 5.003-2.339 7.162-8.292 4.822-13.294-2.34-5.003-8.292-7.163-13.294-4.822-14.828 6.934-30.664 10.644-47.117 11.049l-29.255-59.169 85.383-85.383 59.17 29.255c-.397 16.117-3.97 31.658-10.642 46.236-2.298 5.022-.091 10.956 4.931 13.254 1.349.618 2.763.91 4.155.91 3.792 0 7.418-2.168 9.099-5.841 6.538-14.285 10.523-29.353 11.921-44.935l26.587 13.145c-3.143 75.001-63.579 135.437-138.58 138.58z"/><path id="XMLID_1449_" d="m418.627 260.302c-2.63 0-5.21 1.06-7.07 2.92s-2.93 4.44-2.93 7.08c0 2.63 1.07 5.21 2.93 7.07s4.44 2.93 7.07 2.93 5.21-1.07 7.07-2.93c1.86-1.87 2.93-4.44 2.93-7.07 0-2.64-1.07-5.21-2.93-7.08-1.86-1.86-4.441-2.92-7.07-2.92z"/></g></g></svg>